<svg width="20" height="162" viewBox="0 0 20 162" fill="none" xmlns="http://www.w3.org/2000/svg">
<path d="M13.8822 9.80206L14.375 6.64838H11.2932V4.60186C11.2932 3.73908 11.7237 2.89807 13.104 2.89807H14.505V0.213059C14.505 0.213059 13.2336 0 12.018 0C9.48007 0 7.82114 1.51047 7.82114 4.24484V6.64838H5V9.80206H7.82114V17.4259H11.2932V9.80206H13.8822Z" fill="#E8E8E8"/>
<path d="M16.6346 41.2736C16.6457 41.4425 16.6457 41.6114 16.6457 41.7802C16.6457 46.9308 13.0522 52.8654 6.48429 52.8654C4.46084 52.8654 2.58116 52.2261 1 51.1164C1.28749 51.1526 1.56389 51.1646 1.86245 51.1646C3.53203 51.1646 5.06898 50.5495 6.29631 49.5001C4.72621 49.4639 3.41042 48.3421 2.95708 46.7981C3.17824 46.8343 3.39936 46.8584 3.63158 46.8584C3.95222 46.8584 4.2729 46.8101 4.57142 46.7257C2.93499 46.3638 1.70762 44.7958 1.70762 42.902V42.8538C2.18305 43.1433 2.73595 43.3242 3.32193 43.3483C2.35997 42.6487 1.72974 41.4545 1.72974 40.1036C1.72974 39.3798 1.90662 38.7164 2.21624 38.1374C3.97431 40.5016 6.61695 42.0456 9.5802 42.2145C9.52493 41.925 9.49175 41.6234 9.49175 41.3219C9.49175 39.1748 11.084 37.4258 13.0632 37.4258C14.0915 37.4258 15.0202 37.8962 15.6726 38.6561C16.4798 38.4873 17.2538 38.1616 17.9393 37.7153C17.6739 38.62 17.11 39.3799 16.3692 39.8623C17.0879 39.7779 17.7845 39.5608 18.4258 39.2592C17.9394 40.0312 17.3312 40.7187 16.6346 41.2736Z" fill="#E8E8E8"/>
<path d="M17.6522 143.762H1.35362C0.606794 143.762 0 144.351 0 145.075V160.666C0 161.39 0.606794 161.98 1.35362 161.98H17.6522C18.399 161.98 19.0101 161.39 19.0101 160.666V145.075C19.0101 144.351 18.399 143.762 17.6522 143.762ZM5.74545 159.377H2.92789V150.683H5.74969V159.377H5.74545ZM4.33667 149.495C3.43284 149.495 2.70299 148.792 2.70299 147.93C2.70299 147.068 3.43284 146.364 4.33667 146.364C5.23625 146.364 5.97035 147.068 5.97035 147.93C5.97035 148.796 5.24049 149.495 4.33667 149.495ZM16.3071 159.377H13.4895V155.148C13.4895 154.139 13.4683 152.842 12.0256 152.842C10.5574 152.842 10.3325 153.94 10.3325 155.075V159.377H7.51491V150.683H10.2179V151.87H10.2561C10.6337 151.187 11.5545 150.467 12.9251 150.467C15.7766 150.467 16.3071 152.269 16.3071 154.611V159.377Z" fill="#E8E8E8"/>
<path fill-rule="evenodd" clip-rule="evenodd" d="M7.98844 82.4533V76.8415C9.98064 77.7789 11.5236 78.6845 13.3485 79.6608C11.8433 80.4955 9.98064 81.4321 7.98844 82.4533ZM19.091 74.0505C18.7474 73.5977 18.1616 73.2453 17.5381 73.1286C15.7053 72.7805 4.27099 72.7796 2.43915 73.1286C1.93911 73.2223 1.49384 73.4489 1.11133 73.801C-0.500362 75.2969 0.00466618 83.3189 0.393147 84.6183C0.556507 85.1808 0.76769 85.5864 1.03365 85.8527C1.37631 86.2047 1.84547 86.4471 2.38436 86.5558C3.89345 86.868 11.668 87.0425 17.5062 86.6027C18.0441 86.509 18.5202 86.2588 18.8958 85.8918C20.3859 84.4019 20.2843 75.9293 19.091 74.0505Z" fill="#E8E8E8"/>
<path d="M18 111.83C18 110.88 17.7888 110.352 17.5776 109.718C17.3665 109.19 17.0497 108.662 16.6273 108.24C16.205 107.712 15.677 107.501 15.1491 107.29C14.6211 107.078 13.9876 106.973 13.0373 106.867C12.087 106.867 11.7702 106.867 9.4472 106.867C7.22981 106.867 6.91304 106.867 5.96273 106.867C5.01242 106.867 4.48447 107.078 3.85093 107.29C3.32298 107.501 2.79503 107.817 2.37267 108.24C1.95031 108.768 1.63354 109.19 1.42236 109.824C1.21118 110.352 1.10559 110.985 1 111.83C1 112.78 1 113.097 1 115.314C1 117.637 1 117.954 1 118.799C1 119.749 1.21118 120.277 1.42236 120.911C1.63354 121.439 1.95031 121.967 2.37267 122.389C2.90062 122.917 3.32298 123.128 3.85093 123.339C4.37888 123.55 5.01242 123.656 5.96273 123.762C6.91304 123.762 7.12422 123.762 9.4472 123.762C11.7702 123.762 12.087 123.762 12.9317 123.762C13.882 123.762 14.4099 123.55 15.0435 123.339C15.5714 123.128 16.0994 122.811 16.5217 122.389C17.0497 121.861 17.2609 121.439 17.472 120.911C17.6832 120.383 17.7888 119.749 17.8944 118.799C18 117.849 17.8944 117.637 17.8944 115.314C17.8944 112.991 18 112.78 18 111.83ZM9.4472 119.749C7.01863 119.749 5.11801 117.743 5.11801 115.42C5.11801 112.991 7.12422 111.091 9.4472 111.091C11.8758 111.091 13.7764 113.097 13.7764 115.42C13.882 117.743 11.8758 119.749 9.4472 119.749ZM13.9876 111.83C13.4596 111.83 12.9317 111.408 12.9317 110.774C12.9317 110.246 13.354 109.718 13.9876 109.718C14.5155 109.718 15.0435 110.14 15.0435 110.774C15.0435 111.408 14.6211 111.83 13.9876 111.83Z" fill="#E8E8E8"/>
<path d="M12.2976 115.316C12.2976 116.9 11.0305 118.167 9.44663 118.167C7.86278 118.167 6.5957 116.9 6.5957 115.316C6.5957 113.732 7.96837 112.57 9.44663 112.57C11.0305 112.57 12.2976 113.837 12.2976 115.316Z" fill="#E8E8E8"/>
</svg>
