<svg width="42" height="31" viewBox="0 0 42 31" fill="none" xmlns="http://www.w3.org/2000/svg">
<path d="M9.5002 0.000390053C4.4002 0.000390053 0.800195 3.20038 0.800195 8.40039C0.800195 13.7004 4.7002 16.1004 8.1002 16.1004C9.5002 16.1004 10.4002 15.7004 11.0002 15.1004L11.4002 15.4004C10.0002 20.0004 5.8002 23.7004 0.000195354 25.9004L6.3002 30.7004C14.9002 26.8004 19.1002 19.5004 19.1002 11.7004C19.1002 5.10039 15.8002 0.000390053 9.5002 0.000390053ZM31.7002 0.000390053C26.6002 0.000390053 23.0002 3.20038 23.0002 8.40039C23.0002 13.7004 26.9002 16.1004 30.3002 16.1004C31.7002 16.1004 32.6002 15.7004 33.2002 15.1004L33.6002 15.4004C32.2002 20.0004 28.0002 23.7004 22.2002 25.9004L28.5002 30.7004C37.1002 26.8004 41.3002 19.5004 41.3002 11.7004C41.3002 5.10039 38.0002 0.000390053 31.7002 0.000390053Z" fill="#FCD54C"/>
</svg>
